<svg width="14" height="14" viewBox="0 0 14 14" fill="none" xmlns="http://www.w3.org/2000/svg">
<path fill-rule="evenodd" clip-rule="evenodd" d="M0.638184 6.67388C0.638184 2.99199 3.62295 0.00721741 7.30485 0.00721741C9.07296 0.00721741 10.7687 0.709596 12.0189 1.95984C13.2691 3.21008 13.9715 4.90577 13.9715 6.67388C13.9715 10.3558 10.9867 13.3406 7.30485 13.3406C3.62295 13.3406 0.638184 10.3558 0.638184 6.67388ZM7.30485 7.34055H9.97152C10.3397 7.34055 10.6382 7.04207 10.6382 6.67388C10.6382 6.30569 10.3397 6.00722 9.97152 6.00722H7.97152V4.00722C7.97152 3.63903 7.67304 3.34055 7.30485 3.34055C6.93666 3.34055 6.63818 3.63903 6.63818 4.00722V6.67388C6.63818 7.04207 6.93666 7.34055 7.30485 7.34055Z" fill="#8BACD9"/>
</svg>
